<mxfile host="app.diagrams.net" modified="2023-12-18T18:18:11.043Z" agent="Mozilla/5.0 (Windows NT 10.0; Win64; x64) AppleWebKit/537.36 (KHTML, like Gecko) Chrome/119.0.0.0 Safari/537.36 OPR/105.0.0.0" version="22.1.11" etag="n6CjHQp1NQEPjq4F_sYl" type="github">
  <diagram name="Страница — 1" id="NGx_SFG-YPluI9Swiak_">
    <mxGraphModel>
      <root>
        <mxCell id="0" />
        <mxCell id="1" parent="0" />
      </root>
    </mxGraphModel>
  </diagram>
</mxfile>
